<svg width="512" height="512" viewBox="0 0 512 512" fill="none" xmlns="http://www.w3.org/2000/svg">
<g filter="url(#filter0_d_28536_2)">
<rect x="50" y="50" width="412" height="412" rx="92" fill="white"/>
<rect x="50.5" y="50.5" width="411" height="411" rx="91.5" stroke="#E4E4E4"/>
</g>
<g filter="url(#filter1_i_28536_2)">
<circle cx="256" cy="256" r="186" fill="url(#paint0_linear_28536_2)"/>
</g>
<g filter="url(#filter2_d_28536_2)">
<path d="M185.894 375.41V374.338L190.115 372.194V336.818L186.095 333.334V332.865L194.403 329.18H194.805L195.341 333.267H195.81C197.508 331.838 199.138 330.81 200.701 330.185C202.265 329.515 203.962 329.18 205.793 329.18C208.071 329.18 210.081 329.761 211.823 330.922C213.565 332.083 214.928 333.736 215.91 335.88C216.938 337.979 217.451 340.503 217.451 343.451C217.451 347.114 216.759 350.24 215.374 352.831C214.034 355.377 212.203 357.32 209.88 358.66C207.558 360 205.012 360.67 202.242 360.67C199.741 360.67 197.485 360.447 195.475 360V372.194L200.232 374.338V375.41H185.894ZM202.108 333.803C201.036 333.803 199.92 333.982 198.758 334.339C197.642 334.652 196.547 335.143 195.475 335.813V354.64C196.815 355.712 198.178 356.449 199.562 356.851C200.947 357.253 202.488 357.454 204.185 357.454C206.329 357.454 208.183 356.561 209.746 354.774C211.31 352.943 212.091 349.905 212.091 345.662C212.091 342.893 211.645 340.637 210.751 338.895C209.858 337.153 208.652 335.88 207.133 335.076C205.615 334.227 203.94 333.803 202.108 333.803ZM227.452 360.67C225.353 360.67 223.611 360.067 222.226 358.861C220.841 357.61 220.149 355.891 220.149 353.702C220.149 351.513 220.953 349.615 222.561 348.007C224.214 346.399 226.961 345.148 230.802 344.255L237.167 342.781V337.89C237.167 336.371 236.542 335.076 235.291 334.004C234.085 332.887 232.7 332.329 231.137 332.329C229.44 332.329 228.256 332.798 227.586 333.736C226.916 334.629 226.581 335.835 226.581 337.354V339.23L226.246 339.565H222.762C222.092 339.565 221.623 339.453 221.355 339.23C221.132 339.007 221.02 338.493 221.02 337.689C221.02 336.706 221.31 335.701 221.891 334.674C222.472 333.647 223.365 332.753 224.571 331.994C225.822 331.19 227.117 330.52 228.457 329.984C229.842 329.448 231.316 329.18 232.879 329.18C234.442 329.18 235.961 329.403 237.435 329.85C238.954 330.297 240.182 331.056 241.12 332.128C242.058 333.155 242.527 334.607 242.527 336.483V355.511C242.84 355.824 243.286 356.092 243.867 356.315C244.448 356.538 245.252 356.65 246.279 356.65H248.825L249.026 356.784V356.985C248.49 357.968 247.686 358.839 246.614 359.598C245.587 360.313 244.314 360.67 242.795 360.67C241.41 360.67 240.271 360.313 239.378 359.598C238.529 358.839 237.926 357.856 237.569 356.65H237.167C236.006 357.811 234.554 358.772 232.812 359.531C231.115 360.29 229.328 360.67 227.452 360.67ZM225.375 352.362C225.375 355.131 227.05 356.516 230.4 356.516C231.472 356.516 232.522 356.404 233.549 356.181C234.621 355.958 235.827 355.556 237.167 354.975V345.059C233.594 345.729 230.981 346.444 229.328 347.203C227.675 347.918 226.603 348.699 226.112 349.548C225.621 350.397 225.375 351.335 225.375 352.362ZM259.696 360.67C257.731 360.67 256.034 360.089 254.604 358.928C253.175 357.767 252.46 356.136 252.46 354.037V332.999H246.966V332.597L252.661 329.85L257.418 322.48H257.82V329.85H266.664V332.999H257.82V352.898C257.82 354.059 258.334 354.908 259.361 355.444C260.389 355.98 261.595 356.248 262.979 356.248C263.828 356.248 264.61 356.203 265.324 356.114C266.084 356.025 266.731 355.913 267.267 355.779H267.468V356.449C267.022 357.476 266.128 358.437 264.788 359.33C263.493 360.223 261.796 360.67 259.696 360.67ZM268.642 360V358.928L272.863 356.784V317.388L268.843 313.904V313.435L277.821 309.75H278.223V334.138H278.491C280.188 332.441 281.818 331.19 283.382 330.386C284.99 329.582 286.754 329.18 288.675 329.18C291.31 329.18 293.454 329.85 295.107 331.19C296.804 332.485 297.653 334.428 297.653 337.019V356.784L301.874 358.928V360H287.536V358.928L292.293 356.985V340.168C292.293 338.203 291.667 336.706 290.417 335.679C289.211 334.652 287.625 334.138 285.66 334.138C284.454 334.138 283.114 334.339 281.64 334.741C280.21 335.143 279.071 335.724 278.223 336.483V356.985L282.98 358.928V360H268.642ZM314.673 360.67C312.574 360.67 310.765 360.491 309.246 360.134C307.727 359.777 306.186 359.196 304.623 358.392V350.888H305.561L307.705 354.573C309.09 357.03 311.345 358.258 314.472 358.258C316.259 358.258 317.643 357.834 318.626 356.985C319.653 356.136 320.167 354.975 320.167 353.501C320.167 352.206 319.854 351.201 319.229 350.486C318.604 349.771 317.71 349.146 316.549 348.61C315.432 348.029 314.092 347.382 312.529 346.667C310.251 345.64 308.487 344.523 307.236 343.317C306.03 342.066 305.427 340.324 305.427 338.091C305.427 336.438 305.896 334.942 306.834 333.602C307.772 332.262 308.956 331.19 310.385 330.386C311.859 329.582 313.378 329.18 314.941 329.18C316.594 329.18 318.112 329.381 319.497 329.783C320.882 330.185 322.289 330.743 323.718 331.458V338.761H322.78L320.569 335.21C319.81 334.004 318.983 333.133 318.09 332.597C317.197 332.061 316.236 331.793 315.209 331.793C313.69 331.793 312.462 332.173 311.524 332.932C310.631 333.691 310.184 334.741 310.184 336.081C310.184 337.6 310.72 338.761 311.792 339.565C312.909 340.324 314.517 341.195 316.616 342.178C317.867 342.803 319.117 343.429 320.368 344.054C321.663 344.679 322.713 345.573 323.517 346.734C324.366 347.851 324.79 349.459 324.79 351.558C324.79 353.523 324.254 355.198 323.182 356.583C322.11 357.923 320.792 358.95 319.229 359.665C317.666 360.335 316.147 360.67 314.673 360.67Z" fill="#252525"/>
</g>
<g filter="url(#filter3_d_28536_2)">
<path d="M256 201.389C239.82 184.744 219.488 172.518 195.767 166.704L197.096 157.535C213.84 161.488 228.757 168.498 241.98 177.502L246.066 180.292L244.737 175.508C239.355 156.007 243.774 133.681 255.933 118C268.093 133.681 272.512 155.973 267.129 175.508L265.801 180.292L269.887 177.502C283.11 168.498 298.026 161.389 314.771 157.402L316.1 166.571C292.379 172.385 272.046 184.744 255.867 201.389" fill="#252525"/>
<path d="M202.08 298.399L212.346 201.854L214.804 203.349C229.688 212.319 241.781 225.209 249.754 240.658L250.12 241.322L249.887 242.053C244.937 257.136 242.977 277.668 244.306 295.375C248.458 295.276 252.578 295.209 256.764 295.209C260.452 295.209 264.106 295.276 267.761 295.342C269.09 277.601 267.13 257.103 262.179 242.02L261.947 241.289L262.312 240.625C270.286 225.176 282.379 212.286 297.262 203.316L299.721 201.821L309.953 298.199C318.724 299.196 327.395 300.425 336 301.887L318.89 182.585C293.575 189.329 271.847 205.11 257.595 227.136L256.066 229.528L254.538 227.136C240.252 205.076 218.558 189.329 193.243 182.585L176 302.153C184.605 300.658 193.309 299.395 202.08 298.399Z" fill="#252525"/>
</g>
<defs>
<filter id="filter0_d_28536_2" x="40" y="44" width="432" height="432" filterUnits="userSpaceOnUse" color-interpolation-filters="sRGB">
<feFlood flood-opacity="0" result="BackgroundImageFix"/>
<feColorMatrix in="SourceAlpha" type="matrix" values="0 0 0 0 0 0 0 0 0 0 0 0 0 0 0 0 0 0 127 0" result="hardAlpha"/>
<feOffset dy="4"/>
<feGaussianBlur stdDeviation="5"/>
<feComposite in2="hardAlpha" operator="out"/>
<feColorMatrix type="matrix" values="0 0 0 0 0 0 0 0 0 0 0 0 0 0 0 0 0 0 0.25 0"/>
<feBlend mode="normal" in2="BackgroundImageFix" result="effect1_dropShadow_28536_2"/>
<feBlend mode="normal" in="SourceGraphic" in2="effect1_dropShadow_28536_2" result="shape"/>
</filter>
<filter id="filter1_i_28536_2" x="70" y="70" width="372" height="372" filterUnits="userSpaceOnUse" color-interpolation-filters="sRGB">
<feFlood flood-opacity="0" result="BackgroundImageFix"/>
<feBlend mode="normal" in="SourceGraphic" in2="BackgroundImageFix" result="shape"/>
<feColorMatrix in="SourceAlpha" type="matrix" values="0 0 0 0 0 0 0 0 0 0 0 0 0 0 0 0 0 0 127 0" result="hardAlpha"/>
<feOffset/>
<feGaussianBlur stdDeviation="4"/>
<feComposite in2="hardAlpha" operator="arithmetic" k2="-1" k3="1"/>
<feColorMatrix type="matrix" values="0 0 0 0 0 0 0 0 0 0 0 0 0 0 0 0 0 0 0.8 0"/>
<feBlend mode="normal" in2="shape" result="effect1_innerShadow_28536_2"/>
</filter>
<filter id="filter2_d_28536_2" x="182.894" y="306.75" width="146.896" height="73.66" filterUnits="userSpaceOnUse" color-interpolation-filters="sRGB">
<feFlood flood-opacity="0" result="BackgroundImageFix"/>
<feColorMatrix in="SourceAlpha" type="matrix" values="0 0 0 0 0 0 0 0 0 0 0 0 0 0 0 0 0 0 127 0" result="hardAlpha"/>
<feOffset dx="1" dy="1"/>
<feGaussianBlur stdDeviation="2"/>
<feComposite in2="hardAlpha" operator="out"/>
<feColorMatrix type="matrix" values="0 0 0 0 1 0 0 0 0 1 0 0 0 0 1 0 0 0 1 0"/>
<feBlend mode="normal" in2="BackgroundImageFix" result="effect1_dropShadow_28536_2"/>
<feBlend mode="normal" in="SourceGraphic" in2="effect1_dropShadow_28536_2" result="shape"/>
</filter>
<filter id="filter3_d_28536_2" x="175" y="114" width="164" height="188.153" filterUnits="userSpaceOnUse" color-interpolation-filters="sRGB">
<feFlood flood-opacity="0" result="BackgroundImageFix"/>
<feColorMatrix in="SourceAlpha" type="matrix" values="0 0 0 0 0 0 0 0 0 0 0 0 0 0 0 0 0 0 127 0" result="hardAlpha"/>
<feOffset dx="1" dy="-2"/>
<feGaussianBlur stdDeviation="1"/>
<feComposite in2="hardAlpha" operator="out"/>
<feColorMatrix type="matrix" values="0 0 0 0 1 0 0 0 0 1 0 0 0 0 1 0 0 0 1 0"/>
<feBlend mode="normal" in2="BackgroundImageFix" result="effect1_dropShadow_28536_2"/>
<feBlend mode="normal" in="SourceGraphic" in2="effect1_dropShadow_28536_2" result="shape"/>
</filter>
<linearGradient id="paint0_linear_28536_2" x1="256" y1="70" x2="256" y2="442" gradientUnits="userSpaceOnUse">
<stop stop-color="#88C2FF"/>
<stop offset="1" stop-color="#006AD9"/>
</linearGradient>
</defs>
</svg>
