<svg width="512" height="512" viewBox="0 0 512 512" fill="none" xmlns="http://www.w3.org/2000/svg">
<g filter="url(#filter0_d_28637_7)">
<rect x="50" y="50" width="412" height="412" rx="92" fill="white"/>
<rect x="50.5" y="50.5" width="411" height="411" rx="91.5" stroke="#E4E4E4"/>
</g>
<g filter="url(#filter1_i_28637_7)">
<circle cx="256" cy="256" r="186" fill="url(#paint0_linear_28637_7)"/>
</g>
<g filter="url(#filter2_d_28637_7)">
<path d="M204.826 195.561C205.304 195.546 205.767 195.523 206.241 195.457C206.599 192.841 206.388 190.005 206.389 187.359L206.386 172.948C206.384 169.626 206.272 166.251 206.631 162.944C207.96 150.729 217.369 139.863 229.668 138.006C233.657 137.404 237.806 137.562 241.831 137.561L290.858 137.553C298.862 137.541 306.993 137.258 314.953 138.178C324.926 139.903 329.467 144.434 336.266 151.261L355.921 171.211C360.526 175.892 364.86 180.233 367.126 186.54C366.988 188.268 368.019 189.975 368.352 191.645C369.874 199.299 368.965 213.207 368.965 221.32L368.971 276.765C368.973 281.627 369.249 286.639 368.253 291.424C365.01 307.016 351.564 314.77 336.596 314.765L327.657 314.761C320.013 314.757 312.358 314.66 304.715 314.758C304.466 313.546 304.653 312.031 304.663 310.782L304.713 266.758C304.71 263.069 305.299 250.99 304.281 248.553C301.859 240.679 295.838 235.706 290.284 229.991L272.331 211.778C265.304 204.767 261.633 199.209 251.299 196.231C249.442 195.233 220.073 195.475 213.092 195.506C210.357 195.517 207.544 195.919 204.826 195.561Z" fill="#345B70"/>
<path d="M314.952 138.178C324.926 139.903 329.467 144.434 336.266 151.261L355.921 171.211C360.526 175.892 364.86 180.233 367.126 186.54L345.076 186.54C332.837 186.563 319.434 187.123 315.559 171.57C314.519 167.395 314.949 161.587 314.949 157.196L314.952 138.178Z" fill="#143141"/>
<path d="M214.94 176.561C217.659 176.919 220.471 176.517 223.206 176.506C230.188 176.475 259.556 176.233 261.413 177.231C271.747 180.209 275.418 185.767 282.445 192.778L300.398 210.991C305.952 216.706 311.973 221.679 314.395 229.553C315.413 231.99 314.824 244.069 314.827 247.758L314.777 291.782C314.767 293.031 314.58 294.546 314.829 295.758C315.028 301.351 314.83 306.964 314.834 312.559C314.842 325.342 316.304 335.233 306.696 345.118C295.924 356.2 276.962 353.041 262.443 353.041L190.227 353.049C178.867 353.061 170.571 353.769 161.726 345.054C155.254 338.677 153.134 330.955 153.102 322.099L153.098 212.839C153.094 208.056 152.706 202.885 153.501 198.164C155.142 188.424 162.643 180.219 172.15 177.599C177.988 175.99 186.346 176.56 192.537 176.56L214.94 176.561Z" fill="#90D6FE"/>
<path d="M261.413 177.231C271.747 180.209 275.418 185.767 282.445 192.778L300.398 210.991C305.952 216.706 311.973 221.679 314.395 229.553C312.909 229.915 306.053 229.556 303.999 229.553L287.993 229.557C277.581 229.572 264.603 229.956 261.845 216.496C261.222 213.459 261.407 210.231 261.413 207.143L261.407 184.171C261.398 181.863 261.295 179.536 261.413 177.231Z" fill="#548EAE"/>
<path fill-rule="evenodd" clip-rule="evenodd" d="M234 231.4C215.443 231.4 200.4 246.443 200.4 265C200.4 283.557 215.443 298.6 234 298.6C252.557 298.6 267.6 283.557 267.6 265C267.6 246.443 252.557 231.4 234 231.4ZM192 265C192 241.804 210.804 223 234 223C257.196 223 276 241.804 276 265C276 288.196 257.196 307 234 307C210.804 307 192 288.196 192 265ZM226.83 249.43C228.47 247.79 231.13 247.79 232.77 249.43L245.37 262.03C247.01 263.67 247.01 266.33 245.37 267.97L232.77 280.57C231.13 282.21 228.47 282.21 226.83 280.57C225.19 278.93 225.19 276.27 226.83 274.63L236.46 265L226.83 255.37C225.19 253.73 225.19 251.07 226.83 249.43Z" fill="#294757"/>
</g>
<defs>
<filter id="filter0_d_28637_7" x="40" y="44" width="432" height="432" filterUnits="userSpaceOnUse" color-interpolation-filters="sRGB">
<feFlood flood-opacity="0" result="BackgroundImageFix"/>
<feColorMatrix in="SourceAlpha" type="matrix" values="0 0 0 0 0 0 0 0 0 0 0 0 0 0 0 0 0 0 127 0" result="hardAlpha"/>
<feOffset dy="4"/>
<feGaussianBlur stdDeviation="5"/>
<feComposite in2="hardAlpha" operator="out"/>
<feColorMatrix type="matrix" values="0 0 0 0 0 0 0 0 0 0 0 0 0 0 0 0 0 0 0.25 0"/>
<feBlend mode="normal" in2="BackgroundImageFix" result="effect1_dropShadow_28637_7"/>
<feBlend mode="normal" in="SourceGraphic" in2="effect1_dropShadow_28637_7" result="shape"/>
</filter>
<filter id="filter1_i_28637_7" x="70" y="70" width="372" height="372" filterUnits="userSpaceOnUse" color-interpolation-filters="sRGB">
<feFlood flood-opacity="0" result="BackgroundImageFix"/>
<feBlend mode="normal" in="SourceGraphic" in2="BackgroundImageFix" result="shape"/>
<feColorMatrix in="SourceAlpha" type="matrix" values="0 0 0 0 0 0 0 0 0 0 0 0 0 0 0 0 0 0 127 0" result="hardAlpha"/>
<feOffset/>
<feGaussianBlur stdDeviation="4"/>
<feComposite in2="hardAlpha" operator="arithmetic" k2="-1" k3="1"/>
<feColorMatrix type="matrix" values="0 0 0 0 0 0 0 0 0 0 0 0 0 0 0 0 0 0 0.8 0"/>
<feBlend mode="normal" in2="shape" result="effect1_innerShadow_28637_7"/>
</filter>
<filter id="filter2_d_28637_7" x="149" y="137.502" width="224.234" height="223.955" filterUnits="userSpaceOnUse" color-interpolation-filters="sRGB">
<feFlood flood-opacity="0" result="BackgroundImageFix"/>
<feColorMatrix in="SourceAlpha" type="matrix" values="0 0 0 0 0 0 0 0 0 0 0 0 0 0 0 0 0 0 127 0" result="hardAlpha"/>
<feOffset dy="4"/>
<feGaussianBlur stdDeviation="2"/>
<feComposite in2="hardAlpha" operator="out"/>
<feColorMatrix type="matrix" values="0 0 0 0 0 0 0 0 0 0 0 0 0 0 0 0 0 0 0.45 0"/>
<feBlend mode="normal" in2="BackgroundImageFix" result="effect1_dropShadow_28637_7"/>
<feBlend mode="normal" in="SourceGraphic" in2="effect1_dropShadow_28637_7" result="shape"/>
</filter>
<linearGradient id="paint0_linear_28637_7" x1="256" y1="70" x2="256" y2="442" gradientUnits="userSpaceOnUse">
<stop stop-color="#88C2FF"/>
<stop offset="1" stop-color="#006AD9"/>
</linearGradient>
</defs>
</svg>
