<svg width="512" height="512" viewBox="0 0 512 512" fill="none" xmlns="http://www.w3.org/2000/svg">
<g filter="url(#filter0_d_28638_48)">
<rect x="50" y="50" width="412" height="412" rx="92" fill="white"/>
<rect x="50.5" y="50.5" width="411" height="411" rx="91.5" stroke="#E4E4E4"/>
</g>
<g filter="url(#filter1_i_28638_48)">
<circle cx="256" cy="256" r="186" fill="url(#paint0_linear_28638_48)"/>
</g>
<path d="M105.021 298V209.238H133.781C144.68 209.238 151.784 209.682 155.094 210.57C160.18 211.902 164.438 214.809 167.869 219.289C171.3 223.729 173.016 229.481 173.016 236.545C173.016 241.994 172.027 246.576 170.049 250.289C168.071 254.003 165.548 256.929 162.48 259.068C159.453 261.167 156.365 262.56 153.217 263.246C148.938 264.094 142.742 264.518 134.629 264.518H122.943V298H105.021ZM122.943 224.254V249.441H132.752C139.816 249.441 144.538 248.977 146.92 248.049C149.301 247.12 151.158 245.667 152.49 243.689C153.863 241.712 154.549 239.411 154.549 236.787C154.549 233.558 153.6 230.894 151.703 228.795C149.806 226.696 147.404 225.384 144.498 224.859C142.359 224.456 138.06 224.254 131.602 224.254H122.943Z" fill="#294757"/>
<path d="M191.615 253.316L176.176 250.531C177.911 244.315 180.898 239.714 185.137 236.727C189.375 233.74 195.672 232.246 204.027 232.246C211.616 232.246 217.267 233.154 220.98 234.971C224.694 236.747 227.298 239.027 228.791 241.812C230.325 244.557 231.092 249.623 231.092 257.01L230.91 276.869C230.91 282.52 231.173 286.698 231.697 289.402C232.262 292.066 233.292 294.932 234.785 298H217.953C217.509 296.87 216.964 295.195 216.318 292.975C216.036 291.965 215.834 291.299 215.713 290.977C212.807 293.802 209.699 295.921 206.389 297.334C203.079 298.747 199.547 299.453 195.793 299.453C189.173 299.453 183.946 297.657 180.111 294.064C176.317 290.472 174.42 285.931 174.42 280.441C174.42 276.809 175.288 273.579 177.023 270.754C178.759 267.888 181.181 265.708 184.289 264.215C187.438 262.681 191.958 261.349 197.852 260.219C205.803 258.725 211.313 257.333 214.381 256.041V254.346C214.381 251.076 213.574 248.755 211.959 247.383C210.344 245.97 207.297 245.264 202.816 245.264C199.789 245.264 197.428 245.869 195.732 247.08C194.037 248.251 192.665 250.329 191.615 253.316ZM214.381 267.121C212.201 267.848 208.75 268.715 204.027 269.725C199.305 270.734 196.217 271.723 194.764 272.691C192.544 274.266 191.434 276.264 191.434 278.686C191.434 281.067 192.322 283.126 194.098 284.861C195.874 286.597 198.134 287.465 200.879 287.465C203.947 287.465 206.873 286.456 209.658 284.438C211.717 282.904 213.069 281.027 213.715 278.807C214.159 277.354 214.381 274.589 214.381 270.512V267.121ZM274.93 233.699V247.262H263.305V273.176C263.305 278.423 263.406 281.491 263.608 282.379C263.85 283.227 264.355 283.933 265.122 284.498C265.929 285.063 266.898 285.346 268.028 285.346C269.602 285.346 271.883 284.801 274.87 283.711L276.323 296.91C272.367 298.605 267.887 299.453 262.881 299.453C259.814 299.453 257.049 298.949 254.586 297.939C252.124 296.89 250.308 295.558 249.137 293.943C248.007 292.288 247.22 290.068 246.776 287.283C246.413 285.305 246.231 281.309 246.231 275.295V247.262H238.42V233.699H246.231V220.924L263.305 210.994V233.699H274.93ZM301.21 209.238V241.873C306.7 235.455 313.259 232.246 320.888 232.246C324.803 232.246 328.335 232.973 331.483 234.426C334.632 235.879 336.993 237.736 338.567 239.996C340.182 242.257 341.272 244.759 341.837 247.504C342.442 250.249 342.745 254.507 342.745 260.279V298H325.731V264.033C325.731 257.292 325.408 253.014 324.763 251.197C324.117 249.381 322.966 247.948 321.311 246.898C319.697 245.809 317.658 245.264 315.196 245.264C312.371 245.264 309.848 245.95 307.628 247.322C305.408 248.695 303.773 250.773 302.724 253.559C301.714 256.303 301.21 260.38 301.21 265.789V298H284.196V209.238H301.21ZM351.587 279.654L368.662 277.051C369.388 280.361 370.861 282.883 373.081 284.619C375.302 286.314 378.41 287.162 382.406 287.162C386.805 287.162 390.115 286.355 392.335 284.74C393.829 283.61 394.576 282.096 394.576 280.199C394.576 278.908 394.172 277.838 393.365 276.99C392.517 276.183 390.62 275.436 387.673 274.75C373.949 271.723 365.251 268.958 361.578 266.455C356.492 262.984 353.949 258.16 353.949 251.984C353.949 246.414 356.149 241.732 360.548 237.938C364.948 234.143 371.77 232.246 381.013 232.246C389.813 232.246 396.352 233.679 400.63 236.545C404.909 239.411 407.856 243.649 409.47 249.26L393.425 252.227C392.739 249.724 391.427 247.807 389.49 246.475C387.593 245.143 384.868 244.477 381.316 244.477C376.835 244.477 373.626 245.102 371.689 246.354C370.397 247.242 369.751 248.392 369.751 249.805C369.751 251.016 370.317 252.045 371.447 252.893C372.981 254.023 378.268 255.617 387.31 257.676C396.392 259.734 402.729 262.257 406.322 265.244C409.874 268.271 411.65 272.49 411.65 277.898C411.65 283.792 409.188 288.857 404.263 293.096C399.339 297.334 392.053 299.453 382.406 299.453C373.647 299.453 366.704 297.677 361.578 294.125C356.492 290.573 353.162 285.749 351.587 279.654Z" fill="#294757"/>
<defs>
<filter id="filter0_d_28638_48" x="40" y="44" width="432" height="432" filterUnits="userSpaceOnUse" color-interpolation-filters="sRGB">
<feFlood flood-opacity="0" result="BackgroundImageFix"/>
<feColorMatrix in="SourceAlpha" type="matrix" values="0 0 0 0 0 0 0 0 0 0 0 0 0 0 0 0 0 0 127 0" result="hardAlpha"/>
<feOffset dy="4"/>
<feGaussianBlur stdDeviation="5"/>
<feComposite in2="hardAlpha" operator="out"/>
<feColorMatrix type="matrix" values="0 0 0 0 0 0 0 0 0 0 0 0 0 0 0 0 0 0 0.25 0"/>
<feBlend mode="normal" in2="BackgroundImageFix" result="effect1_dropShadow_28638_48"/>
<feBlend mode="normal" in="SourceGraphic" in2="effect1_dropShadow_28638_48" result="shape"/>
</filter>
<filter id="filter1_i_28638_48" x="70" y="70" width="372" height="372" filterUnits="userSpaceOnUse" color-interpolation-filters="sRGB">
<feFlood flood-opacity="0" result="BackgroundImageFix"/>
<feBlend mode="normal" in="SourceGraphic" in2="BackgroundImageFix" result="shape"/>
<feColorMatrix in="SourceAlpha" type="matrix" values="0 0 0 0 0 0 0 0 0 0 0 0 0 0 0 0 0 0 127 0" result="hardAlpha"/>
<feOffset/>
<feGaussianBlur stdDeviation="4"/>
<feComposite in2="hardAlpha" operator="arithmetic" k2="-1" k3="1"/>
<feColorMatrix type="matrix" values="0 0 0 0 0 0 0 0 0 0 0 0 0 0 0 0 0 0 0.8 0"/>
<feBlend mode="normal" in2="shape" result="effect1_innerShadow_28638_48"/>
</filter>
<linearGradient id="paint0_linear_28638_48" x1="256" y1="70" x2="256" y2="442" gradientUnits="userSpaceOnUse">
<stop stop-color="#88C2FF"/>
<stop offset="1" stop-color="#006AD9"/>
</linearGradient>
</defs>
</svg>
